<?xml version="1.0"?>
<svg xmlns="http://www.w3.org/2000/svg" xmlns:xlink="http://www.w3.org/1999/xlink" xmlns:svgjs="http://svgjs.com/svgjs" version="1.1" width="512" height="512" x="0" y="0" viewBox="0 0 455.273 455" style="enable-background:new 0 0 512 512" xml:space="preserve" class=""><g><path xmlns="http://www.w3.org/2000/svg" d="m401.917969 227.636719c0 96.328125-78.089844 174.417969-174.417969 174.417969s-174.417969-78.089844-174.417969-174.417969 78.089844-174.417969 174.417969-174.417969 174.417969 78.089844 174.417969 174.417969zm0 0" fill="#fcedb1" data-original="#fcb1ba" style=""/><path xmlns="http://www.w3.org/2000/svg" d="m136.5 227.636719c0-6.597657.292969-13.105469.835938-19.523438-32.441407 20.007813-57.464844 50.058594-71.269532 85.585938-3.804687-9.292969-6.792968-18.902344-8.933594-28.714844 17.558594 80.027344 88.4375 137.054687 170.367188 137.070313 3.652344 0 7.273438-.148438 10.871094-.375-58.976563-22.792969-101.871094-92.082032-101.871094-174.042969zm0 0" fill="#ffb70c" data-original="#f96e7f" style="" class=""/><path xmlns="http://www.w3.org/2000/svg" d="m155.335938 137.710938c18.003906-39.929688 47.601562-70.425782 83.035156-84.121094-3.597656-.21875-7.21875-.371094-10.871094-.371094-96.328125 0-174.417969 78.089844-174.417969 174.417969 0 3.15625.085938 6.289062.257813 9.402343.023437.433594.070312.859376.097656 1.292969.171875 2.738281.378906 5.464844.675781 8.164063.019531.199218.054688.394531.074219.589844.675781 6.011718 1.65625 11.980468 2.941406 17.890624l.003906.003907c10.101563-55.863281 46.726563-103.328125 98.203126-127.269531zm0 0" fill="#ffb70c" data-original="#f96e7f" style="" class=""/><path xmlns="http://www.w3.org/2000/svg" d="m182 227.636719c.003906-13.414063 1.183594-26.800781 3.535156-40.007813-17.011718 4.347656-33.265625 11.253906-48.199218 20.484375-.542969 6.417969-.835938 12.925781-.835938 19.523438 0 81.960937 42.894531 151.25 101.871094 174.042969 11.347656-.6875 22.597656-2.484376 33.59375-5.367188-52.75-27.03125-89.964844-92.34375-89.964844-168.675781zm0 0" fill="#fcedb1" data-original="#fcb1ba" style=""/><path xmlns="http://www.w3.org/2000/svg" d="m155.335938 137.710938c16.757812-7.765626 34.652343-12.800782 53.003906-14.910157 14.472656-27.070312 36.605468-49.277343 63.625-63.839843-10.996094-2.882813-22.246094-4.679688-33.59375-5.371094-35.433594 13.695312-65.03125 44.191406-83.035156 84.121094zm0 0" fill="#fcedb1" data-original="#fcb1ba" style=""/><path xmlns="http://www.w3.org/2000/svg" d="m227.5 227.636719c-.015625-15.238281 1.5-30.441407 4.515625-45.375-1.089844-.019531-2.15625-.125-3.253906-.125-14.582031.015625-29.105469 1.863281-43.226563 5.492187-2.351562 13.207032-3.535156 26.59375-3.535156 40.007813 0 76.332031 37.214844 141.644531 89.964844 168.675781 9.828125-2.589844 19.40625-6.042969 28.628906-10.320312-43.632812-31.277344-73.09375-90.453126-73.09375-158.355469zm0 0" fill="#ffb70c" data-original="#f96e7f" style="" class=""/><path xmlns="http://www.w3.org/2000/svg" d="m253.515625 123.371094c11.507813-21.285156 27.585937-39.757813 47.078125-54.09375-9.21875-4.273438-18.800781-7.722656-28.628906-10.316406-27.019532 14.5625-49.152344 36.765624-63.625 63.839843 15.007812-1.949219 30.21875-1.757812 45.175781.570313zm0 0" fill="#ffb70c" data-original="#f96e7f" style="" class=""/><path xmlns="http://www.w3.org/2000/svg" d="m273 227.636719c0-13.007813 1.109375-25.996094 3.316406-38.816407-14.421875-4.082031-29.3125-6.289062-44.300781-6.558593-3.019531 14.933593-4.53125 30.136719-4.515625 45.375 0 67.902343 29.460938 127.078125 73.09375 158.355469 9.492188-4.390626 18.570312-9.628907 27.125-15.648438-33.320312-33.335938-54.71875-84.847656-54.71875-142.707031zm0 0" fill="#fcedb1" data-original="#fcb1ba" style=""/><path xmlns="http://www.w3.org/2000/svg" d="m253.515625 123.371094c13.707031 1.945312 27.132813 5.53125 39.988281 10.675781 8.527344-18.199219 20.097656-34.8125 34.214844-49.117187-8.550781-6.023438-17.628906-11.257813-27.125-15.652344-19.492188 14.335937-35.570312 32.808594-47.078125 54.09375zm0 0" fill="#fcedb1" data-original="#fcb1ba" style=""/><path xmlns="http://www.w3.org/2000/svg" d="m276.316406 188.820312c-2.207031 12.820313-3.316406 25.808594-3.316406 38.816407 0 57.859375 21.398438 109.371093 54.71875 142.707031 32.871094-23.097656 56.777344-56.824219 67.679688-95.496094-1.492188 5.324219-3.226563 10.539063-5.203126 15.644532-20.371093-49.554688-62.34375-87.027344-113.878906-101.671876zm0 0" fill="#ffb70c" data-original="#f96e7f" style="" class=""/><path xmlns="http://www.w3.org/2000/svg" d="m293.503906 134.046875c53.632813 21.472656 93.175782 68.078125 105.625 124.496094l.003906-.003907c.882813-4.933593 1.558594-9.933593 2.03125-15.003906.019532-.25.035157-.503906.054688-.753906.445312-4.992188.699219-10.039062.699219-15.144531.027343-56.828125-27.667969-110.09375-74.199219-142.710938-14.117188 14.308594-25.6875 30.921875-34.214844 49.121094zm0 0" fill="#ffb70c" data-original="#f96e7f" style="" class=""/><path xmlns="http://www.w3.org/2000/svg" d="m310.910156 182.136719c-4.1875-.003907-7.578125-3.398438-7.578125-7.585938.003907-1.59375.503907-3.148437 1.4375-4.4375l98.585938-136.5c2.449219-3.394531 7.1875-4.15625 10.585937-1.707031 3.390625 2.453125 4.15625 7.191406 1.707032 10.585938l-98.585938 136.5c-1.425781 1.976562-3.714844 3.148437-6.152344 3.144531zm0 0" fill="#cfdfe8" data-original="#cfdfe8" style=""/><path xmlns="http://www.w3.org/2000/svg" d="m439.832031 30.46875c0 12.566406-10.183593 22.75-22.75 22.75-12.5625 0-22.75-10.183594-22.75-22.75 0-12.5625 10.1875-22.75 22.75-22.75 12.566407 0 22.75 10.1875 22.75 22.75zm0 0" fill="#eb8cb3" data-original="#eb8cb3" style="" class=""/><path xmlns="http://www.w3.org/2000/svg" d="m417.074219 379.304688c-1.578125 0-3.113281-.496094-4.398438-1.410157l-159.25-113.75c-3.402343-2.445312-4.179687-7.183593-1.734375-10.585937 2.433594-3.390625 7.144532-4.175782 10.546875-1.761719l159.25 113.75c3.410157 2.4375 4.199219 7.171875 1.761719 10.582031-1.425781 1.992188-3.722656 3.175782-6.175781 3.175782zm0 0" fill="#cfdfe8" data-original="#cfdfe8" style=""/><path xmlns="http://www.w3.org/2000/svg" d="m447.417969 379.304688c0 12.5625-10.1875 22.75-22.75 22.75-12.566407 0-22.753907-10.1875-22.753907-22.75 0-12.566407 10.1875-22.753907 22.753907-22.753907 12.5625 0 22.75 10.1875 22.75 22.753907zm0 0" fill="#eb8cb3" data-original="#eb8cb3" style="" class=""/><path xmlns="http://www.w3.org/2000/svg" d="m273 455.136719h-72.042969c-10.464843-.011719-18.945312-8.492188-18.957031-18.957031-.003906-2.09375-1.699219-3.789063-3.792969-3.792969h-140.289062c-20.941407 0-37.917969-16.976563-37.917969-37.917969s16.976562-37.914062 37.917969-37.914062h113.75c4.1875 0 7.582031 3.394531 7.582031 7.582031s-3.394531 7.582031-7.582031 7.582031h-113.75c-12.566407 0-22.753907 10.1875-22.753907 22.753906 0 12.5625 10.1875 22.75 22.753907 22.75h140.289062c10.464844.007813 18.949219 8.492188 18.960938 18.957032 0 2.09375 1.695312 3.789062 3.789062 3.792968h72.042969c4.1875 0 7.582031 3.394532 7.582031 7.582032s-3.394531 7.582031-7.582031 7.582031zm0 0" fill="#f98c96" data-original="#f98c96" style=""/><path xmlns="http://www.w3.org/2000/svg" d="m424.667969 348.96875c-6.480469.019531-12.777344 2.132812-17.960938 6.019531l-30.9375-22.097656c8.710938-12.183594 15.886719-25.394531 21.363281-39.335937l.132813-.324219c1.761719-4.546875 3.363281-9.257813 4.777344-14.035157v-.019531c.230469-.757812.445312-1.515625.660156-2.277343v-.03125l.007813-.007813c1.40625-5.023437 2.582031-10.1875 3.554687-15.359375.082031-.191406.0625-.421875.128906-.621094.058594-.335937.140625-.667968.203125-1v-.003906l.007813-.058594c.125-.414062.210937-.839844.257812-1.273437l-.019531-.097657c.792969-4.660156 1.398438-9.304687 1.820312-13.835937.011719-.125.039063-.25.050782-.375l.058594-.78125c.488281-5.488281.726562-10.664063.726562-15.816406-.058594-42.902344-15.257812-84.410157-42.925781-117.199219l37.894531-52.464844c3.949219 1.847656 8.253906 2.8125 12.613281 2.832032 16.753907 0 30.332031-13.582032 30.332031-30.335938 0-16.75-13.578124-30.332031-30.332031-30.332031-16.753906 0-30.332031 13.582031-30.332031 30.332031.015625 6.445312 2.105469 12.714844 5.957031 17.882812l-36.582031 50.65625c-22.726562-22.804687-51.101562-39.15625-82.230469-47.382812l-.007812-.003906c-11.472657-3-23.210938-4.878906-35.050781-5.601563-3.753907-.230469-7.527344-.382812-11.335938-.382812-100.46875.113281-181.886719 81.53125-182 182 0 3.296875.09375 6.566406.265625 9.789062l.066406.910157.03125.382812v.007812l.003907.074219c.007812.175781.023437.347657.03125.523438.015624.203125.039062.40625.050781.609375.128906 1.917968.296875 3.933594.515625 6.09375.042968.425781.058594.855468.105468 1.277344v.019531l.03125.101562.035157.355469h-.003907.003907l.011719.113281-.003907.03125c.347657 3.105469.789063 6.226563 1.304688 9.34375.117187.726563.277343 1.425781.402343 2.148438.378907 2.132812.75 4.269531 1.203126 6.386719.046874.230468.097656.460937.148437.691406l.019531.074218.003906.027344v.007813c2.230469 10.238281 5.347657 20.265625 9.316407 29.964843.097656.238282.210937.46875.332031.699219 9.332031 22.226563 22.988281 42.382813 40.179688 59.285157h-61.636719c-20.941407-.003907-37.917969 16.972656-37.917969 37.914062s16.976562 37.917969 37.917969 37.917969h140.289062c2.09375.003906 3.789063 1.699219 3.792969 3.792969.011719 10.464843 8.492188 18.945312 18.957031 18.957031h72.042969c4.1875 0 7.582031-3.394531 7.582031-7.582031 0-4.191407-3.394531-7.585938-7.582031-7.585938h-72.042969c-2.09375-.003906-3.789062-1.699219-3.789062-3.789062-.011719-10.46875-8.496094-18.949219-18.960938-18.960938h-140.289062c-12.566407 0-22.753907-10.183594-22.753907-22.75s10.1875-22.75 22.753907-22.75h78.933593c31.695313 24.492188 70.59375 37.820312 110.648438 37.914062 3.808594 0 7.582031-.148437 11.339844-.382812 11.832031-.722656 23.570312-2.597656 35.039062-5.601562h.019532c36.199218-9.523438 68.546874-30.058594 92.5625-58.769532l30.65625 21.898438c-1.816407 3.925781-2.765626 8.195312-2.78125 12.523437 0 16.753907 13.582031 30.332031 30.332031 30.332031 16.753906 0 30.332031-13.578124 30.332031-30.332031 0-16.75-13.582031-30.332031-30.332031-30.332031zm-61.222657-24.882812-79.199218-56.570313c-.097656-.53125-.246094-1.039063-.34375-1.570313-.097656-.5625-.171875-1.136718-.265625-1.699218-.945313-5.660156-1.707031-11.398438-2.207031-17.210938-.03125-.34375-.039063-.695312-.070313-1.042968-.496094-6.058594-.777344-12.175782-.777344-18.355469 0-5.683594.292969-11.386719.730469-17.070313.132812-1.695312.332031-3.382812.5-5.074218.226562-2.253907.570312-4.488282.867188-6.734376 44.492187 15.359376 80.511718 48.65625 99.3125 91.804688-4.875 11.847656-11.097657 23.097656-18.546876 33.523438zm30.710938-104.203126c-12.71875-27.507812-32.125-51.394531-56.449219-69.472656l19.691407-27.265625c22.183593 27.539063 35.054687 61.414063 36.757812 96.738281zm7.761719-189.414062c-.085938-8.460938 6.703125-15.390625 15.164062-15.476562 8.464844-.085938 15.394531 6.703124 15.480469 15.167968.085938 8.460938-6.707031 15.390625-15.167969 15.476563-1.25.011719-2.5-.128907-3.714843-.417969l1.96875-2.726562c2.449218-3.394532 1.683593-8.132813-1.707032-10.585938-3.398437-2.453125-8.136718-1.6875-10.585937 1.707031l-.769531 1.066407c-.425782-1.363282-.648438-2.78125-.667969-4.210938zm-54.808594 81.019531-21.929687 30.363281c-6.785157-4.308593-13.851563-8.167968-21.152344-11.546874.710937-1.335938 1.378906-2.707032 2.113281-4.019532.648437-1.15625 1.289063-2.316406 1.960937-3.453125 2.015626-3.414062 4.117188-6.738281 6.320313-9.953125.246094-.359375.46875-.742187.71875-1.097656 2.457031-3.519531 5.054687-6.886719 7.738281-10.152344.765625-.933594 1.566406-1.828125 2.351563-2.742187 1.128906-1.3125 2.320312-2.550781 3.488281-3.820313 6.527344 5.015625 12.675781 10.503906 18.390625 16.421875zm-33.5625-22.28125c-.925781 1.085938-1.84375 2.171875-2.75 3.28125-2.398437 2.941407-4.714844 5.976563-6.945313 9.105469-.503906.699219-1.035156 1.367188-1.527343 2.078125-2.660157 3.839844-5.179688 7.828125-7.582031 11.925781-.617188 1.054688-1.191407 2.148438-1.792969 3.214844-1.066407 1.902344-2.171875 3.761719-3.183594 5.714844-7.859375-2.792969-15.902344-5.042969-24.070313-6.726563.289063-.453125.59375-.890625.886719-1.34375 1.9375-2.976562 3.957031-5.875 6.046875-8.6875.484375-.652343.953125-1.316406 1.441406-1.957031 2.40625-3.140625 4.90625-6.160156 7.496094-9.058594.570313-.648437 1.160156-1.269531 1.742188-1.902344 2.433594-2.640624 4.925781-5.191406 7.492187-7.613281.335938-.316406.65625-.652343.992188-.964843 2.828125-2.617188 5.75-5.0625 8.726562-7.394532.324219-.257812.65625-.5.980469-.753906 4.964844 2.464844 9.808594 5.171875 14.527344 8.128906-.855469.953125-1.644532 1.980469-2.480469 2.953125zm-28.980469-16.773437c-2.878906 2.53125-5.710937 5.160156-8.449218 7.9375-.191407.195312-.398438.375-.589844.574218-2.878906 2.949219-5.644532 6.074219-8.34375 9.28125-.695313.824219-1.378906 1.65625-2.0625 2.5-2.539063 3.128907-5.011719 6.335938-7.371094 9.675782-.132812.191406-.28125.371094-.417969.5625-2.460937 3.515625-4.777343 7.175781-7.019531 10.902344-.273438.453124-.585938.871093-.855469 1.328124-6.863281-.847656-13.773437-1.285156-20.691406-1.308593-1.980469 0-3.988281.042969-6.050781.125 1.203125-1.785157 2.417968-3.5625 3.671875-5.28125.433593-.59375.84375-1.21875 1.285156-1.804688 2.042969-2.722656 4.152344-5.355469 6.328125-7.890625.628906-.738281 1.289062-1.429687 1.925781-2.148437 1.597657-1.800781 3.210938-3.566407 4.871094-5.265625.835937-.859375 1.691406-1.695313 2.546875-2.53125 1.558594-1.523438 3.140625-3 4.75-4.433594.867188-.773438 1.730469-1.550781 2.609375-2.296875 1.847656-1.570313 3.734375-3.066406 5.644531-4.523437.648438-.492188 1.273438-1.015626 1.925782-1.492188 2.582031-1.894531 5.210937-3.679688 7.886718-5.359375.570313-.355469 1.152344-.664063 1.726563-1.007813 1.671875-1.011718 3.375-1.953124 5.082031-2.878906 4.296875 1.21875 8.578125 2.621094 12.804688 4.199219-.414063.359375-.792969.777344-1.207032 1.136719zm-34.558594-8.800782c-.816406.589844-1.617187 1.210938-2.425781 1.820313-2.078125 1.570313-4.121093 3.203125-6.132812 4.890625-.773438.652344-1.554688 1.292969-2.320313 1.960938-2.636718 2.308593-5.234375 4.695312-7.75 7.210937-.207031.207031-.402344.433594-.609375.644531-2.308593 2.332032-4.550781 4.765625-6.75 7.269532-.734375.835937-1.453125 1.695312-2.175781 2.554687-1.738281 2.058594-3.4375 4.167969-5.097656 6.335937-.648438.84375-1.304688 1.671876-1.941406 2.53125-2.191407 2.964844-4.328126 5.996094-6.371094 9.140626-.257813.398437-.496094.816406-.753906 1.214843-1.375 2.152344-2.742188 4.316407-4.046876 6.550781-10.921874 1.5-21.679687 3.988282-32.152343 7.433594 1.414062-2.410156 2.84375-4.792968 4.34375-7.097656.601562-.925781 1.164062-1.902344 1.78125-2.8125 2.605469-3.839844 5.328125-7.519531 8.171875-11.042969.648437-.804687 1.347656-1.53125 2.007812-2.316406 2.234375-2.664063 4.523438-5.25 6.890625-7.710937 1.058594-1.097657 2.152344-2.132813 3.234375-3.1875 2.089844-2.039063 4.214844-4.011719 6.390625-5.890626 1.195313-1.03125 2.398438-2.035156 3.617188-3.023437 2.242187-1.804687 4.535156-3.503906 6.863281-5.144531 1.171875-.828125 2.332031-1.683594 3.527344-2.46875 2.890625-1.894532 5.84375-3.632813 8.84375-5.265625.671875-.363281 1.3125-.789063 1.992187-1.140625 3.453125-1.796875 7-3.363282 10.585938-4.804688 3.929687.285156 7.847656.703125 11.726562 1.257813-.492187.347656-.960937.734375-1.449219 1.089843zm-43.539062-1.511718c-3.160156 2.207031-6.234375 4.574218-9.246094 7.050781-.589844.480469-1.148437 1.015625-1.730468 1.507813-2.976563 2.523437-5.875 5.175781-8.695313 7.960937-.90625.894531-1.8125 1.792969-2.703125 2.714844-3.097656 3.199219-6.121094 6.507812-9.007812 10.011719-.167969.203124-.347657.386718-.511719.589843-3.03125 3.707031-5.898438 7.625-8.675781 11.65625-.746094 1.078125-1.464844 2.183594-2.191407 3.285157-2.214843 3.363281-4.34375 6.828124-6.382812 10.390624-.523438.914063-1.070313 1.796876-1.582031 2.726563-2.148438 3.90625-4.21875 7.898437-6.148438 12.027344-40.148438 19.4375-71.785156 52.917969-88.917969 94.101562.851563-83.398437 63.070313-153.394531 145.792969-164.023437zm-141.558594 202.722656c17.023438-90.414062 104.117188-149.90625 194.53125-132.878906 20.171875 3.796875 39.46875 11.292968 56.914063 22.105468l-11.585938 16.042969c-2.453125 3.394531-1.6875 8.132813 1.707031 10.585938 3.394532 2.449219 8.132813 1.6875 10.585938-1.707031l11.828125-16.375c31.539063 23.585937 53.675781 57.609374 62.449219 96.003906-.722656 3.839844-1.617188 7.585937-2.582032 11.269531-23.511718-43.011719-63.257812-74.832031-110.375-88.367187h-.019531c-15.039062-4.253907-30.5625-6.554688-46.1875-6.84375l-.003906-.003907-1.183594-.050781c-.734375-.035156-1.476562-.074219-2.222656-.074219-15.21875.019531-30.375 1.949219-45.117187 5.734375l-.015626.003906c-17.75 4.53125-34.703124 11.738282-50.28125 21.375-28.152343 17.4375-51.074218 42.152344-66.347656 71.535157-.777344-2.75-1.453125-5.546875-2.09375-8.355469zm78.996094 106.875h7.761719c4.1875 0 7.582031-3.394531 7.582031-7.582031s-3.394531-7.585938-7.582031-7.585938h-29.546875c-20.75-16.867187-37.15625-38.46875-47.84375-62.984375 11.539062-28.019531 30.433594-52.402344 54.683594-70.574218-.03125 1.558593-.042969 3.105468-.046876 4.644531 0 4.851562.179688 9.660156.464844 14.433593.089844 1.53125.246094 3.042969.367188 4.566407.253906 3.246093.550781 6.476562.933594 9.675781.207031 1.734375.453124 3.449219.699218 5.167969.425782 3 .910156 5.972656 1.445313 8.917969.308593 1.699218.621093 3.386718.96875 5.070312.628906 3.0625 1.339843 6.085938 2.085937 9.089844.363282 1.453125.695313 2.917968 1.082032 4.351562 1.0625 3.929688 2.226562 7.804688 3.488281 11.625.144531.445313.265625.90625.414062 1.351563 1.4375 4.253906 3.015625 8.421875 4.691407 12.519531.488281 1.199219 1.035156 2.359375 1.546874 3.542969 1.234376 2.871093 2.507813 5.710937 3.859376 8.492187.6875 1.414063 1.410156 2.792969 2.125 4.179688 1.292968 2.511718 2.632812 4.984375 4.019531 7.417968.785156 1.375 1.578125 2.742188 2.394531 4.089844 1.476562 2.445313 3.015625 4.828125 4.589844 7.183594.792968 1.1875 1.5625 2.390625 2.382812 3.554688 1.980469 2.816406 4.042969 5.546874 6.164063 8.21875.46875.59375.902343 1.21875 1.378906 1.804687 2.621094 3.21875 5.339844 6.3125 8.15625 9.289063.769531.8125 1.578125 1.566406 2.363281 2.359374 2.082032 2.121094 4.195313 4.199219 6.378906 6.1875 1.074219.980469 2.183594 1.914063 3.285157 2.859376 1.984375 1.707031 4 3.367187 6.058593 4.964843 1.199219.929688 2.410157 1.835938 3.628907 2.726563.816406.59375 1.59375 1.246094 2.421875 1.820312-22.019532-2.890625-43.234375-10.160156-62.402344-21.378906zm95.800781 22.269531c-1.574219-.632812-3.109375-1.371093-4.65625-2.074219-1.722656-.78125-3.464843-1.511718-5.152343-2.378906-1.722657-.882812-3.382813-1.902344-5.070313-2.875-1.640625-.945312-3.308594-1.839844-4.914063-2.867187-1.652343-1.058594-3.242187-2.242188-4.851562-3.382813-1.5625-1.101562-3.148438-2.15625-4.671875-3.332031-1.566406-1.210937-3.0625-2.546875-4.582031-3.832031-1.484375-1.257813-3-2.464844-4.441406-3.792969-1.480469-1.359375-2.882813-2.835937-4.316407-4.269531-1.394531-1.394532-2.820312-2.742188-4.167969-4.199219-1.390624-1.507813-2.699218-3.121094-4.042968-4.695313-1.296875-1.523437-2.628906-2.996093-3.882813-4.578124-1.289062-1.632813-2.496093-3.375-3.734375-5.074219-1.199218-1.640625-2.4375-3.238281-3.585937-4.933594-1.195313-1.769531-2.296875-3.632813-3.4375-5.460937-1.089844-1.742188-2.21875-3.4375-3.253907-5.230469-1.09375-1.890625-2.082031-3.875-3.117187-5.820313-.972656-1.832031-1.992187-3.621094-2.910156-5.5-.980469-2-1.847657-4.085937-2.765625-6.136718-.855469-1.917969-1.765625-3.796876-2.5625-5.753907-.871094-2.125-1.621094-4.328125-2.421875-6.5-.726563-1.96875-1.507813-3.898437-2.179688-5.902343-.757812-2.273438-1.394531-4.617188-2.078125-6.9375-.582031-1.972657-1.230468-3.914063-1.757812-5.917969-.644532-2.457031-1.160156-4.980469-1.71875-7.476563-.4375-1.933594-.9375-3.832031-1.320313-5.785156-.527343-2.695312-.910156-5.445312-1.335937-8.179688-.285156-1.8125-.644532-3.601562-.878906-5.429687-.402344-3.089844-.644532-6.222656-.914063-9.351563-.132813-1.523437-.339844-3.019531-.441406-4.550781-.300781-4.675781-.457031-9.386719-.457031-14.132812 0-4.921875.300781-10.023438.644531-15.113281 9.980469-5.851563 20.550781-10.636719 31.53125-14.277344-.078125.609375-.101563 1.222656-.171875 1.832031-.425782 3.597656-.761719 7.199219-1.019532 10.8125-.085937 1.222656-.175781 2.445313-.242187 3.667969-.246094 4.363281-.410156 8.726562-.410156 13.078125 0 4.597656.148437 9.160156.40625 13.691406.085937 1.488281.246093 2.957031.359375 4.4375.230468 3.03125.46875 6.054687.8125 9.050781.195312 1.730469.457031 3.4375.691406 5.152344.371094 2.710938.757812 5.417969 1.21875 8.089844.3125 1.792968.664062 3.566406 1.015625 5.339844.503906 2.5625 1.039063 5.105468 1.625 7.628906.414063 1.78125.855469 3.546875 1.3125 5.308594.640625 2.484374 1.324219 4.945312 2.046875 7.382812.507812 1.714844 1.023438 3.425781 1.570312 5.121094.792969 2.453125 1.640626 4.871094 2.511719 7.277344.582031 1.605468 1.152344 3.214843 1.765625 4.796874.976563 2.496094 2.019532 4.941407 3.082032 7.378907.617187 1.417969 1.199218 2.855469 1.84375 4.253906 1.285156 2.78125 2.660156 5.496094 4.054687 8.191406.507813.976563.96875 1.984375 1.488281 2.949219 1.964844 3.640625 4.023438 7.195312 6.183594 10.664062.371094.59375.78125 1.152344 1.160156 1.738282 1.808594 2.828125 3.664063 5.613281 5.601563 8.308594.816406 1.132812 1.679687 2.203124 2.519531 3.3125 1.574219 2.085937 3.160156 4.160156 4.8125 6.160156 1 1.203125 2.039062 2.359375 3.0625 3.53125 1.582031 1.804687 3.175781 3.59375 4.820312 5.320312 1.117188 1.171875 2.265626 2.308594 3.414063 3.441406 1.644531 1.625 3.308594 3.214844 5.011719 4.761719 1.207031 1.09375 2.429687 2.167969 3.664062 3.21875 1.738282 1.480469 3.507813 2.90625 5.300782 4.300781 1.273437.984376 2.542968 1.96875 3.839843 2.914063.613281.445313 1.195313.941406 1.8125 1.375-3.878906.554687-7.792969.96875-11.71875 1.253906zm33.265625-5.816406c-1.285156-.695313-2.554687-1.429687-3.820312-2.175781-1.46875-.859375-2.949219-1.699219-4.386719-2.621094-1.625-1.046875-3.203125-2.175781-4.789063-3.292969-1.402343-.988281-2.816406-1.957031-4.183593-3.003906-1.546875-1.179687-3.035157-2.445313-4.535157-3.695313-1.332031-1.109374-2.679687-2.199218-3.976562-3.363281-1.453125-1.304687-2.84375-2.695312-4.25-4.066406-1.261719-1.230469-2.542969-2.433594-3.765625-3.714844-1.359375-1.425781-2.652344-2.929687-3.960937-4.414062-1.183594-1.339844-2.390626-2.65625-3.535157-4.046875-1.265625-1.542969-2.46875-3.164063-3.6875-4.765625-1.09375-1.4375-2.214843-2.847657-3.265625-4.328125-1.171875-1.652344-2.269531-3.375-3.390625-5.082032-1.007812-1.535156-2.046875-3.042968-3.011719-4.621093-1.070312-1.746094-2.0625-3.566407-3.078124-5.367188-.917969-1.621093-1.867188-3.21875-2.738282-4.878906-.972656-1.855469-1.863281-3.78125-2.777344-5.683594-.816406-1.691406-1.664062-3.355469-2.433593-5.082031-.875-1.957031-1.652344-3.976562-2.464844-5.980469-.710937-1.75-1.460937-3.476562-2.128906-5.261719-.769531-2.066406-1.441407-4.195312-2.148438-6.304687-.597656-1.785156-1.242187-3.542969-1.792969-5.359375-.664062-2.183594-1.222656-4.425781-1.820312-6.648438-.484375-1.808593-1.019531-3.589843-1.457031-5.421874-.554688-2.3125-.996094-4.679688-1.476563-7.027344-.367187-1.796875-.789062-3.570313-1.109375-5.382813-.441406-2.480469-.761719-5.007812-1.117187-7.519531-.246094-1.742188-.554688-3.457031-.757813-5.214844-.328125-2.777344-.523437-5.601562-.746093-8.417968-.121094-1.53125-.308594-3.035157-.398438-4.574219-.253906-4.371094-.382812-8.777344-.386719-13.21875 0-6.078125.300781-12.175781.804688-18.261719.167969-2 .472656-3.984375.695312-5.976562.351563-3.210938.777344-6.410157 1.269531-9.597657 10.050782-2.265625 20.285157-3.59375 30.578126-3.976562-.050782.3125-.066407.636719-.117188.949219-.847656 5.386718-1.484375 10.824218-1.957031 16.292968-.101563 1.183594-.179688 2.367188-.265625 3.554688-.402344 5.652344-.675782 11.320312-.675782 17.015625 0 4.082031.117188 8.144531.328126 12.1875.070312 1.34375.203124 2.667969.296874 4.007812.1875 2.6875.371094 5.375.648438 8.039063.167969 1.589844.394531 3.152344.589844 4.730468.296875 2.394532.59375 4.792969.964844 7.164063.257812 1.652344.570312 3.285156.863281 4.925781.402343 2.269532.8125 4.539063 1.285156 6.78125.351563 1.664063.738281 3.3125 1.125 4.960938.507813 2.179687 1.027344 4.351562 1.597656 6.503906.4375 1.65625.90625 3.300781 1.382813 4.941406.609375 2.105469 1.242187 4.199219 1.910156 6.277344.519531 1.621094 1.0625 3.230469 1.617188 4.835938.714843 2.054687 1.457031 4.085937 2.230468 6.105468.597656 1.566406 1.203125 3.128906 1.835938 4.675782.820312 2.011718 1.683594 3.988281 2.558594 5.960937.667968 1.496094 1.328124 2.996094 2.027343 4.46875.9375 1.980469 1.925781 3.921875 2.921875 5.859375.71875 1.398438 1.421875 2.808594 2.171875 4.183594 1.074219 1.976562 2.207031 3.90625 3.34375 5.832031.75 1.269531 1.472657 2.5625 2.246094 3.808594 1.273437 2.054687 2.613281 4.039062 3.953125 6.027343.710938 1.050782 1.386719 2.136719 2.113281 3.167969 1.84375 2.613281 3.757813 5.148438 5.714844 7.636719.277344.355469.535156.730469.816406 1.082031 2.25 2.820313 4.578125 5.546875 6.984375 8.191407.765625.84375 1.578125 1.628906 2.363282 2.457031 1.660156 1.757812 3.324218 3.515625 5.050781 5.1875 1.019531.984375 2.082031 1.90625 3.121093 2.859375 1.261719 1.160156 2.492188 2.363281 3.789063 3.476562-4.222656 1.582032-8.5 2.980469-12.792969 4.199219zm28.554688-11.039063c-.796875-.613281-1.601563-1.21875-2.386719-1.847656-1.179687-.949218-2.351563-1.90625-3.503906-2.898437-1.355469-1.160157-2.683594-2.363281-4-3.585938-1.117188-1.035156-2.230469-2.078125-3.320313-3.152343-1.28125-1.269532-2.535156-2.578126-3.78125-3.898438-1.054687-1.117188-2.109375-2.242188-3.136718-3.402344-1.210938-1.363281-2.386719-2.773437-3.554688-4.191406-.988281-1.195312-1.976562-2.390625-2.933594-3.621094-1.136718-1.460937-2.234375-2.964844-3.328125-4.472656-.921875-1.269531-1.847656-2.535156-2.738281-3.839844-1.058594-1.546875-2.066406-3.136718-3.078125-4.722656-.855469-1.34375-1.714844-2.675781-2.535156-4.042969-.96875-1.625-1.894531-3.289062-2.816407-4.953125-.785156-1.414062-1.582031-2.8125-2.335937-4.253906-.882813-1.695312-1.714844-3.429688-2.550781-5.164062-.710938-1.46875-1.4375-2.925782-2.113282-4.417969-.804687-1.777344-1.546874-3.59375-2.300781-5.402344-.628906-1.511719-1.277343-3.011719-1.871093-4.546875-.714844-1.847656-1.367188-3.738281-2.03125-5.621094-.550782-1.550781-1.121094-3.085937-1.632813-4.660156-.625-1.917969-1.183594-3.875-1.753906-5.828125-.464844-1.582031-.960938-3.148437-1.390625-4.75-.535156-1.992187-.992188-4.023437-1.46875-6.046875-.378906-1.601562-.792969-3.183594-1.132813-4.796875-.445312-2.09375-.808593-4.222656-1.191406-6.339844-.285156-1.578125-.609375-3.140625-.859375-4.730469-.351562-2.226562-.613281-4.484374-.898438-6.730468-.191406-1.519532-.429687-3.023438-.589843-4.554688-.261719-2.511718-.425781-5.050781-.605469-7.585937-.085938-1.285157-.230469-2.558594-.296875-3.851563-.199219-3.839844-.300781-7.703125-.304687-11.585937 0-5.742188.285156-11.460938.722656-17.152344.070312-.941406.125-1.886719.210937-2.828125.488281-5.46875 1.183594-10.886719 2.082031-16.265625.070313-.433594.15625-.867187.230469-1.300781 9.921875.566406 19.769531 2.015625 29.433594 4.332031-.050781.351563-.0625.710937-.113281 1.0625-.652344 4.75-1.15625 9.519531-1.519532 14.308594-.074218.984375-.125 1.964843-.1875 2.953125-.316406 4.964844-.527343 9.933594-.527343 14.890625 0 6.46875.300781 12.875.808593 19.222656.039063.472656.054688.949219.097657 1.421875.203125 2.335938.476562 4.648438.746093 6.964844l-4.828124-3.449219c-3.414063-2.425781-8.148438-1.621094-10.574219 1.796875-2.414063 3.402344-1.628907 8.117188 1.761719 10.550781l17.082031 12.199219c.640625 3.03125 1.339843 6.035156 2.101562 9.011719.210938.828125.410157 1.65625.628907 2.476562 1.460937 5.46875 3.121093 10.835938 4.976562 16.105469.292969.832031.589844 1.664062.894531 2.492188 1.90625 5.226562 4.003907 10.335937 6.289063 15.332031.351562.765625.714844 1.523437 1.074218 2.28125 2.367188 5 4.914063 9.867187 7.636719 14.601562.367188.628907.75 1.242188 1.121094 1.867188 2.851563 4.789062 5.859375 9.445312 9.082031 13.910156.300782.417969.621094.808594.921875 1.222656 3.386719 4.605469 6.933594 9.054688 10.707031 13.269531l.082032.101563c-4.703125 2.949219-9.539063 5.652344-14.5 8.117187zm27.105468-16.863281c-.167968-.183593-.34375-.359375-.511718-.539062-3.359375-3.695313-6.542969-7.582031-9.578125-11.613281-.441407-.585938-.890625-1.164063-1.324219-1.757813-2.949219-4.035156-5.734375-8.226563-8.347656-12.570313-.40625-.675781-.816406-1.347656-1.214844-2.03125-2.558594-4.363281-4.941406-8.859374-7.160156-13.488281-.34375-.726562-.683594-1.453125-1.023438-2.1875-2.164062-4.675781-4.15625-9.472656-5.972656-14.386719-.265625-.730468-.519531-1.464843-.78125-2.199218-1.085938-3.066406-1.980469-6.234375-2.925781-9.378906l64.34375 45.957031c-7.632813 8.9375-16.179688 17.046875-25.503907 24.195312zm96.035157 34.199219c-8.316407.0625-15.105469-6.628906-15.167969-14.941406-.011719-1.214844.128906-2.429688.410156-3.609375l2.765625 1.976562c3.417969 2.421875 8.152344 1.621094 10.574219-1.796875 2.414062-3.402344 1.628906-8.117187-1.761719-10.550781l-1.035156-.742187c1.363281-.421876 2.785156-.648438 4.214844-.667969 8.375 0 15.167969 6.789062 15.167969 15.167969-.003907 8.375-6.792969 15.164062-15.167969 15.164062zm0 0" fill="#000000" data-original="#000000" style="" class=""/></g></svg>
